<?xml version="1.0" encoding="iso-8859-1"?>
<!-- Uploaded to: SVG Repo, www.svgrepo.com, Generator: SVG Repo Mixer Tools -->
<svg fill="#000000" height="800px" width="800px" version="1.1" id="Capa_1" xmlns="http://www.w3.org/2000/svg" xmlns:xlink="http://www.w3.org/1999/xlink" 
	 viewBox="0 0 470 470" xml:space="preserve">
<g>
	<path d="M445,115c4.143,0,7.5-3.357,7.5-7.5V7.5c0-4.143-3.357-7.5-7.5-7.5H285c-4.143,0-7.5,3.357-7.5,7.5v100
		c0,4.143,3.357,7.5,7.5,7.5h22.5v62.5h-145V115H185c4.143,0,7.5-3.357,7.5-7.5V7.5c0-4.143-3.357-7.5-7.5-7.5H25
		c-4.143,0-7.5,3.357-7.5,7.5v100c0,4.143,3.357,7.5,7.5,7.5h22.5v240H25c-4.143,0-7.5,3.357-7.5,7.5v100c0,4.143,3.357,7.5,7.5,7.5
		h160c4.143,0,7.5-3.357,7.5-7.5v-100c0-4.143-3.357-7.5-7.5-7.5h-22.5v-62.5h145V355H285c-4.143,0-7.5,3.357-7.5,7.5v100
		c0,4.143,3.357,7.5,7.5,7.5h160c4.143,0,7.5-3.357,7.5-7.5v-100c0-4.143-3.357-7.5-7.5-7.5h-22.5V115H445z M415,370h22.5v85h-145
		v-85H315c4.143,0,7.5-3.357,7.5-7.5V285c0-4.143-3.357-7.5-7.5-7.5H155c-4.143,0-7.5,3.357-7.5,7.5v77.5c0,4.143,3.357,7.5,7.5,7.5
		h22.5v85h-145v-85H55c4.143,0,7.5-3.357,7.5-7.5v-255c0-4.143-3.357-7.5-7.5-7.5H32.5V15h145v85H155c-4.143,0-7.5,3.357-7.5,7.5
		V185c0,4.143,3.357,7.5,7.5,7.5h160c4.143,0,7.5-3.357,7.5-7.5v-77.5c0-4.143-3.357-7.5-7.5-7.5h-22.5V15h145v85H415
		c-4.143,0-7.5,3.357-7.5,7.5v255C407.5,366.643,410.857,370,415,370z"/>
	<path d="M422.5,77.5v-40c0-4.143-3.357-7.5-7.5-7.5H315c-4.143,0-7.5,3.357-7.5,7.5v40c0,4.143,3.357,7.5,7.5,7.5h22.5v122.5H185
		c-4.143,0-7.5,3.357-7.5,7.5s3.357,7.5,7.5,7.5h160c4.143,0,7.5-3.357,7.5-7.5V77.5c0-4.143-3.357-7.5-7.5-7.5h-22.5V45h85v25H385
		c-4.143,0-7.5,3.357-7.5,7.5v255c0,4.143,3.357,7.5,7.5,7.5s7.5-3.357,7.5-7.5V85H415C419.143,85,422.5,81.643,422.5,77.5z"/>
	<path d="M392.5,362.5c0-4.143-3.357-7.5-7.5-7.5s-7.5,3.357-7.5,7.5v30c0,4.143,3.357,7.5,7.5,7.5h22.5v25h-85v-25H345
		c4.143,0,7.5-3.357,7.5-7.5V255c0-4.143-3.357-7.5-7.5-7.5H125c-4.143,0-7.5,3.357-7.5,7.5v137.5c0,4.143,3.357,7.5,7.5,7.5h22.5
		v25h-85v-25H85c4.143,0,7.5-3.357,7.5-7.5v-315c0-4.143-3.357-7.5-7.5-7.5H62.5V45h85v25H125c-4.143,0-7.5,3.357-7.5,7.5V215
		c0,4.143,3.357,7.5,7.5,7.5h30c4.143,0,7.5-3.357,7.5-7.5s-3.357-7.5-7.5-7.5h-22.5V85H155c4.143,0,7.5-3.357,7.5-7.5v-40
		c0-4.143-3.357-7.5-7.5-7.5H55c-4.143,0-7.5,3.357-7.5,7.5v40c0,4.143,3.357,7.5,7.5,7.5h22.5v300H55c-4.143,0-7.5,3.357-7.5,7.5
		v40c0,4.143,3.357,7.5,7.5,7.5h100c4.143,0,7.5-3.357,7.5-7.5v-40c0-4.143-3.357-7.5-7.5-7.5h-22.5V262.5h205V385H315
		c-4.143,0-7.5,3.357-7.5,7.5v40c0,4.143,3.357,7.5,7.5,7.5h100c4.143,0,7.5-3.357,7.5-7.5v-40c0-4.143-3.357-7.5-7.5-7.5h-22.5
		V362.5z"/>
</g>
</svg>